# Rhino

o object_1
v 1226.385009765625 276.4802551269531 -2.5
v 1225.677856445313 261.4802551269531 -2.5
v 1225.677856445313 275.7731323242188 -2.5
v 1225.677856445313 261.4802551269531 -2.5
v 1254.677856445313 261.4802551269531 -2.5
v 1222.142333984375 257.9447326660156 -2.5
v 1225.677856445313 26.48025321960449 -2.5
v 1222.142333984375 30.01578712463379 -2.5
v 1254.677856445313 261.4802551269531 -2.5
v 1222.142333984375 30.01578712463379 -2.5
v 1222.142333984375 257.9447326660156 -2.5
v 1254.677856445313 261.4802551269531 -2.5
v 1226.385009765625 276.4802551269531 -2.5
v 1253.970825195313 276.4802551269531 -2.5
v 1254.677856445313 261.4802551269531 -2.5
v 1225.677856445313 261.4802551269531 -2.5
v 1254.677856445313 261.4802551269531 -2.5
v 1253.970825195313 276.4802551269531 -2.5
v 1254.677856445313 275.7731323242188 -2.5
v 1476.142333984375 257.9447326660156 -2.5
v 1254.677856445313 261.4802551269531 -2.5
v 1472.606811523438 261.4802551269531 -2.5
v 1472.606811523438 26.48025321960449 -2.5
v 1254.677856445313 261.4802551269531 -2.5
v 1476.142333984375 30.01578712463379 -2.5
v 1476.142333984375 257.9447326660156 -2.5
v 1476.142333984375 30.01578712463379 -2.5
v 1254.677856445313 261.4802551269531 -2.5
v 1225.677856445313 26.48025321960449 -2.5
v 1254.677856445313 261.4802551269531 -2.5
v 1472.606811523438 26.48025321960449 -2.5
v 1226.385009765625 276.4802551269531 0
v 1225.677856445313 275.7731323242188 0
v 1225.677856445313 261.4802551269531 0
v 1225.677856445313 261.4802551269531 0
v 1222.142333984375 257.9447326660156 0
v 1254.677856445313 261.4802551269531 0
v 1225.677856445313 26.48025321960449 0
v 1254.677856445313 261.4802551269531 0
v 1222.142333984375 30.01578712463379 0
v 1222.142333984375 30.01578712463379 0
v 1254.677856445313 261.4802551269531 0
v 1222.142333984375 257.9447326660156 0
v 1226.385009765625 276.4802551269531 0
v 1225.677856445313 261.4802551269531 0
v 1254.677856445313 261.4802551269531 0
v 1253.970825195313 276.4802551269531 0
v 1254.677856445313 261.4802551269531 0
v 1254.677856445313 275.7731323242188 0
v 1253.970825195313 276.4802551269531 0
v 1476.142333984375 257.9447326660156 0
v 1472.606811523438 261.4802551269531 0
v 1254.677856445313 261.4802551269531 0
v 1472.606811523438 26.48025321960449 0
v 1476.142333984375 30.01578712463379 0
v 1254.677856445313 261.4802551269531 0
v 1476.142333984375 257.9447326660156 0
v 1254.677856445313 261.4802551269531 0
v 1476.142333984375 30.01578712463379 0
v 1225.677856445313 26.48025321960449 0
v 1472.606811523438 26.48025321960449 0
v 1254.677856445313 261.4802551269531 0
v 1225.677856445313 26.48025321960449 -2.5
v 1472.606811523438 26.48025321960449 -2.5
v 1472.606811523438 26.48025321960449 0
v 1225.677856445313 26.48025321960449 0
v 1472.606811523438 26.48025321960449 -2.5
v 1476.142333984375 30.01578712463379 -2.5
v 1476.142333984375 30.01578712463379 0
v 1472.606811523438 26.48025321960449 0
v 1476.142333984375 30.01578712463379 -2.5
v 1476.142333984375 257.9447326660156 -2.5
v 1476.142333984375 257.9447326660156 0
v 1476.142333984375 30.01578712463379 0
v 1476.142333984375 257.9447326660156 -2.5
v 1472.606811523438 261.4802551269531 -2.5
v 1472.606811523438 261.4802551269531 0
v 1476.142333984375 257.9447326660156 0
v 1472.606811523438 261.4802551269531 -2.5
v 1254.677856445313 261.4802551269531 -2.5
v 1254.677856445313 261.4802551269531 0
v 1472.606811523438 261.4802551269531 0
v 1254.677856445313 261.4802551269531 -2.5
v 1254.677856445313 275.7731323242188 -2.5
v 1254.677856445313 275.7731323242188 0
v 1254.677856445313 261.4802551269531 0
v 1254.677856445313 275.7731323242188 -2.5
v 1253.970825195313 276.4802551269531 -2.5
v 1253.970825195313 276.4802551269531 0
v 1254.677856445313 275.7731323242188 0
v 1253.970825195313 276.4802551269531 -2.5
v 1226.385009765625 276.4802551269531 -2.5
v 1226.385009765625 276.4802551269531 0
v 1253.970825195313 276.4802551269531 0
v 1226.385009765625 276.4802551269531 -2.5
v 1225.677856445313 275.7731323242188 -2.5
v 1225.677856445313 275.7731323242188 0
v 1226.385009765625 276.4802551269531 0
v 1225.677856445313 275.7731323242188 -2.5
v 1225.677856445313 261.4802551269531 -2.5
v 1225.677856445313 261.4802551269531 0
v 1225.677856445313 275.7731323242188 0
v 1225.677856445313 261.4802551269531 -2.5
v 1222.142333984375 257.9447326660156 -2.5
v 1222.142333984375 257.9447326660156 0
v 1225.677856445313 261.4802551269531 0
v 1222.142333984375 257.9447326660156 -2.5
v 1222.142333984375 30.01578712463379 -2.5
v 1222.142333984375 30.01578712463379 0
v 1222.142333984375 257.9447326660156 0
v 1222.142333984375 30.01578712463379 -2.5
v 1225.677856445313 26.48025321960449 -2.5
v 1225.677856445313 26.48025321960449 0
v 1222.142333984375 30.01578712463379 0
vt 0.1133626475930214 0.1000000014901161
vt 0.1111355423927307 0.1480000019073486
vt 0.1111355423927307 0.1022627428174019
vt 0.1111355423927307 0.1480000019073486
vt 0.2024741172790527 0.1480000019073486
vt 0.1000000014901161 0.1593137085437775
vt 0.1111355423927307 0.8999999761581421
vt 0.1000000014901161 0.8886862993240356
vt 0.2024741172790527 0.1480000019073486
vt 0.1000000014901161 0.8886862993240356
vt 0.1000000014901161 0.1593137085437775
vt 0.2024741172790527 0.1480000019073486
vt 0.1133626475930214 0.1000000014901161
vt 0.2002470195293427 0.1000000014901161
vt 0.2024741172790527 0.1480000019073486
vt 0.1111355423927307 0.1480000019073486
vt 0.2024741172790527 0.1480000019073486
vt 0.2002470195293427 0.1000000014901161
vt 0.2024741172790527 0.1022627428174019
vt 0.8999999761581421 0.1593137085437775
vt 0.2024741172790527 0.1480000019073486
vt 0.8888644576072693 0.1480000019073486
vt 0.8888644576072693 0.8999999761581421
vt 0.2024741172790527 0.1480000019073486
vt 0.8999999761581421 0.8886862993240356
vt 0.8999999761581421 0.1593137085437775
vt 0.8999999761581421 0.8886862993240356
vt 0.2024741172790527 0.1480000019073486
vt 0.1111355423927307 0.8999999761581421
vt 0.2024741172790527 0.1480000019073486
vt 0.8888644576072693 0.8999999761581421
vt 0.0167034137994051 1
vt 0.01391934603452683 0.9971715211868286
vt 0.01391934603452683 0.9399999976158142
vt 0.01391934603452683 0.9399999976158142
vt -3.366993439612998e-08 0.9258579015731812
vt 0.12809257209301 0.9399999976158142
vt 0.01391934603452683 -3.41667982795002e-09
vt 0.12809257209301 0.9399999976158142
vt -3.366993439612998e-08 0.01414213236421347
vt -3.366993439612998e-08 0.01414213236421347
vt 0.12809257209301 0.9399999976158142
vt -3.366993439612998e-08 0.9258579015731812
vt 0.0167034137994051 1
vt 0.01391934603452683 0.9399999976158142
vt 0.12809257209301 0.9399999976158142
vt 0.1253089904785156 1
vt 0.12809257209301 0.9399999976158142
vt 0.12809257209301 0.9971715211868286
vt 0.1253089904785156 1
vt 0.9999999403953552 0.9258579015731812
vt 0.9860805869102478 0.9399999976158142
vt 0.12809257209301 0.9399999976158142
vt 0.9860805869102478 -3.41667982795002e-09
vt 0.9999999403953552 0.01414213236421347
vt 0.12809257209301 0.9399999976158142
vt 0.9999999403953552 0.9258579015731812
vt 0.12809257209301 0.9399999976158142
vt 0.9999999403953552 0.01414213236421347
vt 0.01391934603452683 -3.41667982795002e-09
vt 0.9860805869102478 -3.41667982795002e-09
vt 0.12809257209301 0.9399999976158142
vt 1 1
vt 0 1
vt 0 0
vt 1 0
vt 1 1
vt 0 1
vt 0 0
vt 1 0
vt 1 1
vt 0 1
vt 0 0
vt 1 0
vt 1 1
vt 0 1
vt 0 0
vt 1 0
vt 1 1
vt 0 1
vt 0 0
vt 1 0
vt 1 1
vt 0 1
vt 0 0
vt 1 0
vt 1 1
vt 0 1
vt 0 0
vt 1 0
vt 1 1
vt 0 1
vt 0 0
vt 1 0
vt 1 1
vt 0 1
vt 0 0
vt 1 0
vt 1 1
vt 0 1
vt 0 0
vt 1 0
vt 1 1
vt 0 1
vt 0 0
vt 1 0
vt 1 1
vt 0 1
vt 0 0
vt 1 0
vt 1 1
vt 0 1
vt 0 0
vt 1 0
vn 0 0 -1
vn 0 0 -1
vn 0 0 -1
vn 0 0 -1
vn 0 0 -1
vn 0 0 -1
vn 0 0 -1
vn 0 0 -1
vn 0 0 -1
vn 0 0 -1
vn 0 0 -1
vn 0 0 -1
vn 0 0 -1
vn 0 0 -1
vn 0 0 -1
vn 0 0 -1
vn 0 0 -1
vn 0 0 -1
vn 0 0 -1
vn 0 0 -1
vn 0 0 -1
vn 0 0 -1
vn 0 0 -1
vn 0 0 -1
vn 0 0 -1
vn 0 0 -1
vn 0 0 -1
vn 0 0 -1
vn 0 0 -1
vn 0 0 -1
vn 0 0 -1
vn 0 0 1
vn 0 0 1
vn 0 0 1
vn 0 0 1
vn 0 0 1
vn 0 0 1
vn 0 0 1
vn 0 0 1
vn 0 0 1
vn 0 0 1
vn 0 0 1
vn 0 0 1
vn 0 0 1
vn 0 0 1
vn 0 0 1
vn 0 0 1
vn 0 0 1
vn 0 0 1
vn 0 0 1
vn 0 0 1
vn 0 0 1
vn 0 0 1
vn 0 0 1
vn 0 0 1
vn 0 0 1
vn 0 0 1
vn 0 0 1
vn 0 0 1
vn 0 0 1
vn 0 0 1
vn 0 0 1
vn 0 -1 0
vn 0 -1 0
vn 0 -1 0
vn 0 -1 0
vn 0.7071067690849304 -0.7071067690849304 0
vn 0.7071067690849304 -0.7071067690849304 0
vn 0.7071067690849304 -0.7071067690849304 0
vn 0.7071067690849304 -0.7071067690849304 0
vn 1 0 0
vn 1 0 0
vn 1 0 0
vn 1 0 0
vn 0.7071067690849304 0.7071067690849304 0
vn 0.7071067690849304 0.7071067690849304 0
vn 0.7071067690849304 0.7071067690849304 0
vn 0.7071067690849304 0.7071067690849304 0
vn 0 1 0
vn 0 1 0
vn 0 1 0
vn 0 1 0
vn 1 0 0
vn 1 0 0
vn 1 0 0
vn 1 0 0
vn 0.7071067690849304 0.7071067690849304 0
vn 0.7071067690849304 0.7071067690849304 0
vn 0.7071067690849304 0.7071067690849304 0
vn 0.7071067690849304 0.7071067690849304 0
vn 0 1 0
vn 0 1 0
vn 0 1 0
vn 0 1 0
vn -0.7071067690849304 0.7071067690849304 0
vn -0.7071067690849304 0.7071067690849304 0
vn -0.7071067690849304 0.7071067690849304 0
vn -0.7071067690849304 0.7071067690849304 0
vn -1 1.4210854715202e-14 0
vn -1 1.4210854715202e-14 0
vn -1 1.4210854715202e-14 0
vn -1 1.4210854715202e-14 0
vn -0.7071067690849304 0.7071067690849304 0
vn -0.7071067690849304 0.7071067690849304 0
vn -0.7071067690849304 0.7071067690849304 0
vn -0.7071067690849304 0.7071067690849304 0
vn -1 0 0
vn -1 0 0
vn -1 0 0
vn -1 0 0
vn -0.7071067690849304 -0.7071067690849304 0
vn -0.7071067690849304 -0.7071067690849304 0
vn -0.7071067690849304 -0.7071067690849304 0
vn -0.7071067690849304 -0.7071067690849304 0
f 1/1/1 2/2/2 3/3/3
f 4/4/4 5/5/5 6/6/6
f 7/7/7 8/8/8 9/9/9
f 10/10/10 11/11/11 12/12/12
f 13/13/13 14/14/14 15/15/15 16/16/16
f 17/17/17 18/18/18 19/19/19
f 20/20/20 21/21/21 22/22/22
f 23/23/23 24/24/24 25/25/25
f 26/26/26 27/27/27 28/28/28
f 29/29/29 30/30/30 31/31/31
f 32/32/32 33/33/33 34/34/34
f 35/35/35 36/36/36 37/37/37
f 38/38/38 39/39/39 40/40/40
f 41/41/41 42/42/42 43/43/43
f 44/44/44 45/45/45 46/46/46 47/47/47
f 48/48/48 49/49/49 50/50/50
f 51/51/51 52/52/52 53/53/53
f 54/54/54 55/55/55 56/56/56
f 57/57/57 58/58/58 59/59/59
f 60/60/60 61/61/61 62/62/62
f 63/63/63 64/64/64 65/65/65 66/66/66
f 67/67/67 68/68/68 69/69/69 70/70/70
f 71/71/71 72/72/72 73/73/73 74/74/74
f 75/75/75 76/76/76 77/77/77 78/78/78
f 79/79/79 80/80/80 81/81/81 82/82/82
f 83/83/83 84/84/84 85/85/85 86/86/86
f 87/87/87 88/88/88 89/89/89 90/90/90
f 91/91/91 92/92/92 93/93/93 94/94/94
f 95/95/95 96/96/96 97/97/97 98/98/98
f 99/99/99 100/100/100 101/101/101 102/102/102
f 103/103/103 104/104/104 105/105/105 106/106/106
f 107/107/107 108/108/108 109/109/109 110/110/110
f 111/111/111 112/112/112 113/113/113 114/114/114
